<svg width="116" height="86" viewBox="0 0 116 86" fill="none" xmlns="http://www.w3.org/2000/svg"><g clip-path="url(#clip0_1603_2986)"><rect width="116" height="86" fill="none"></rect><g filter="url(#filter0_dd_1603_2986)"><rect x="8" y="8" width="100" height="70" rx="9.14286" fill="#249F58"></rect><path fill-rule="evenodd" clip-rule="evenodd" d="M57.9999 17.334L93.7142 43.0007L57.9999 68.6673L22.2856 43.0007" fill="#FFDA2C"></path><path d="M58 59.334C67.2048 59.334 74.6667 52.0214 74.6667 43.0007C74.6667 33.98 67.2048 26.6674 58 26.6674C48.7953 26.6674 41.3334 33.98 41.3334 43.0007C41.3334 52.0214 48.7953 59.334 58 59.334Z" fill="#1A47B8"></path><path fill-rule="evenodd" clip-rule="evenodd" d="M50.857 50.0007V54.6674H55.6189V50.0007H50.857ZM60.3808 50.0007V54.6674H65.1427V50.0007H60.3808Z" fill="white"></path><path fill-rule="evenodd" clip-rule="evenodd" d="M45.6806 38.2984C45.6806 38.2984 45.6809 38.2985 46.0952 36.0007C46.5094 33.703 46.5099 33.7031 46.5099 33.7031L46.5205 33.7049L46.5471 33.7096C46.57 33.7136 46.603 33.7195 46.6458 33.7271C46.7313 33.7424 46.8557 33.7649 47.0157 33.7946C47.3357 33.8538 47.7982 33.9416 48.3761 34.0569C49.5314 34.2874 51.1517 34.6288 53.0197 35.074C56.7315 35.9586 61.5183 37.2754 65.5838 38.9794L75.6048 43.1895L73.7285 47.4787L63.7113 43.2701L63.7103 43.2697C60.0045 41.7166 55.5157 40.4715 51.8945 39.6085C50.0958 39.1798 48.5352 38.851 47.4261 38.6297C46.8719 38.5192 46.4315 38.4356 46.1315 38.3801C45.9815 38.3523 45.8668 38.3315 45.7905 38.3179C45.7524 38.3111 45.7239 38.306 45.7055 38.3028L45.6855 38.2993L45.6806 38.2984Z" fill="white"></path></g></g><defs><filter id="filter0_dd_1603_2986" x="1.14286" y="5.71429" width="113.714" height="83.7143" filterUnits="userSpaceOnUse" color-interpolation-filters="sRGB"><feFlood flood-opacity="0" result="BackgroundImageFix"></feFlood><feColorMatrix in="SourceAlpha" type="matrix" values="0 0 0 0 0 0 0 0 0 0 0 0 0 0 0 0 0 0 127 0" result="hardAlpha"></feColorMatrix><feOffset dy="4.57143"></feOffset><feGaussianBlur stdDeviation="3.42857"></feGaussianBlur><feComposite in2="hardAlpha" operator="out"></feComposite><feColorMatrix type="matrix" values="0 0 0 0 0.258824 0 0 0 0 0.278431 0 0 0 0 0.298039 0 0 0 0.08 0"></feColorMatrix><feBlend mode="normal" in2="BackgroundImageFix" result="effect1_dropShadow_1603_2986"></feBlend><feColorMatrix in="SourceAlpha" type="matrix" values="0 0 0 0 0 0 0 0 0 0 0 0 0 0 0 0 0 0 127 0" result="hardAlpha"></feColorMatrix><feOffset></feOffset><feGaussianBlur stdDeviation="0.285714"></feGaussianBlur><feComposite in2="hardAlpha" operator="out"></feComposite><feColorMatrix type="matrix" values="0 0 0 0 0.258824 0 0 0 0 0.278431 0 0 0 0 0.298039 0 0 0 0.32 0"></feColorMatrix><feBlend mode="normal" in2="effect1_dropShadow_1603_2986" result="effect2_dropShadow_1603_2986"></feBlend><feBlend mode="normal" in="SourceGraphic" in2="effect2_dropShadow_1603_2986" result="shape"></feBlend></filter><clipPath id="clip0_1603_2986"><rect width="116" height="86" fill="white"></rect></clipPath></defs></svg>