<svg width="116" height="86" viewBox="0 0 116 86" fill="none" xmlns="http://www.w3.org/2000/svg"><g clip-path="url(#clip0_1603_2987)"><rect width="116" height="86" fill="none"></rect><g filter="url(#filter0_dd_1603_2987)"><g clip-path="url(#clip1_1603_2987)"><rect x="8" y="8" width="100" height="70" rx="9.14286" fill="white"></rect><path fill-rule="evenodd" clip-rule="evenodd" d="M8.00098 8H50.8581V40.6667H8.00098V8Z" fill="#1A47B8"></path><path fill-rule="evenodd" clip-rule="evenodd" d="M50.8581 8L50.8581 12.6667H108.001V8H50.8581ZM50.8581 17.3333V22H108.001V17.3333H50.8581ZM50.8581 26.6667V31.3333H108.001V26.6667H50.8581ZM50.8581 36L50.8581 40.6667H108.001V36H50.8581ZM8.00098 45.3333V50H108.001V45.3333H8.00098ZM8.00098 54.6667V59.3333H108.001V54.6667H8.00098ZM8.00098 64V68.6667H108.001V64H8.00098ZM8.00098 73.3333V78H108.001V73.3333H8.00098Z" fill="#F93939"></path><path fill-rule="evenodd" clip-rule="evenodd" d="M12.7623 12.6666V17.3332H17.5242V12.6666H12.7623ZM22.2861 12.6666V17.3332H27.048V12.6666H22.2861ZM31.8099 12.6666V17.3332H36.5718V12.6666H31.8099ZM41.3337 12.6666V17.3332H46.0956V12.6666H41.3337ZM36.5718 17.3332V21.9999H41.3337V17.3332H36.5718ZM27.048 17.3332V21.9999H31.8099V17.3332H27.048ZM17.5242 17.3332V21.9999H22.2861V17.3332H17.5242ZM12.7623 21.9999V26.6666H17.5242V21.9999H12.7623ZM22.2861 21.9999V26.6666H27.048V21.9999H22.2861ZM31.8099 21.9999V26.6666H36.5718V21.9999H31.8099ZM41.3337 21.9999V26.6666H46.0956V21.9999H41.3337ZM12.7623 31.3332V35.9999H17.5242V31.3332H12.7623ZM22.2861 31.3332V35.9999H27.048V31.3332H22.2861ZM31.8099 31.3332V35.9999H36.5718V31.3332H31.8099ZM41.3337 31.3332V35.9999H46.0956V31.3332H41.3337ZM36.5718 26.6666V31.3332H41.3337V26.6666H36.5718ZM27.048 26.6666V31.3332H31.8099V26.6666H27.048ZM17.5242 26.6666V31.3332H22.2861V26.6666H17.5242Z" fill="white"></path></g></g></g><defs><filter id="filter0_dd_1603_2987" x="1.14286" y="5.71429" width="113.714" height="83.7143" filterUnits="userSpaceOnUse" color-interpolation-filters="sRGB"><feFlood flood-opacity="0" result="BackgroundImageFix"></feFlood><feColorMatrix in="SourceAlpha" type="matrix" values="0 0 0 0 0 0 0 0 0 0 0 0 0 0 0 0 0 0 127 0" result="hardAlpha"></feColorMatrix><feOffset dy="4.57143"></feOffset><feGaussianBlur stdDeviation="3.42857"></feGaussianBlur><feComposite in2="hardAlpha" operator="out"></feComposite><feColorMatrix type="matrix" values="0 0 0 0 0.258824 0 0 0 0 0.278431 0 0 0 0 0.298039 0 0 0 0.08 0"></feColorMatrix><feBlend mode="normal" in2="BackgroundImageFix" result="effect1_dropShadow_1603_2987"></feBlend><feColorMatrix in="SourceAlpha" type="matrix" values="0 0 0 0 0 0 0 0 0 0 0 0 0 0 0 0 0 0 127 0" result="hardAlpha"></feColorMatrix><feOffset></feOffset><feGaussianBlur stdDeviation="0.285714"></feGaussianBlur><feComposite in2="hardAlpha" operator="out"></feComposite><feColorMatrix type="matrix" values="0 0 0 0 0.258824 0 0 0 0 0.278431 0 0 0 0 0.298039 0 0 0 0.32 0"></feColorMatrix><feBlend mode="normal" in2="effect1_dropShadow_1603_2987" result="effect2_dropShadow_1603_2987"></feBlend><feBlend mode="normal" in="SourceGraphic" in2="effect2_dropShadow_1603_2987" result="shape"></feBlend></filter><clipPath id="clip0_1603_2987"><rect width="116" height="86" fill="white"></rect></clipPath><clipPath id="clip1_1603_2987"><rect x="8" y="8" width="100" height="70" rx="9.14286" fill="white"></rect></clipPath></defs></svg>